<svg width="24" height="24" viewBox="0 0 24 24" fill="none" xmlns="http://www.w3.org/2000/svg">
  <path d="M10.58 10.58C10.21 10.95 10 11.46 10 12C10 13.1 10.9 14 12 14C12.54 14 13.05 13.79 13.42 13.42" stroke="currentColor" stroke-width="1.8" stroke-linecap="round" stroke-linejoin="round"/>
  <path d="M17.61 17.61C15.99 18.5 14.09 19 12 19C7.34 19 3.6 16.55 1.75 13C2.59 11.39 3.82 10.01 5.33 8.98" stroke="currentColor" stroke-width="1.8" stroke-linecap="round" stroke-linejoin="round"/>
  <path d="M9.53 5.23C10.33 5.08 11.15 5 12 5C16.66 5 20.4 7.45 22.25 11C21.52 12.41 20.51 13.65 19.29 14.65" stroke="currentColor" stroke-width="1.8" stroke-linecap="round" stroke-linejoin="round"/>
  <path d="M3 3L21 21" stroke="currentColor" stroke-width="1.8" stroke-linecap="round"/>
</svg>
