<svg width="24" height="24" viewBox="0 0 24 24" fill="none" xmlns="http://www.w3.org/2000/svg">
  <path d="M3 3L21 21" stroke="#6B7280" stroke-width="1.8" stroke-linecap="round"/>
  <path d="M10.6 6.7C11.05 6.57 11.52 6.5 12 6.5C16.4 6.5 19.8 8.7 21.5 12C20.77 13.41 19.72 14.61 18.45 15.5" stroke="#6B7280" stroke-width="1.8" stroke-linecap="round" stroke-linejoin="round"/>
  <path d="M14.12 14.12C13.58 14.66 12.82 15 12 15C10.34 15 9 13.66 9 12C9 11.18 9.34 10.42 9.88 9.88" stroke="#6B7280" stroke-width="1.8" stroke-linecap="round" stroke-linejoin="round"/>
  <path d="M6.1 6.11C4.56 7.16 3.33 8.47 2.5 12C4.2 15.3 7.6 17.5 12 17.5C13.73 17.5 15.31 17.16 16.72 16.54" stroke="#6B7280" stroke-width="1.8" stroke-linecap="round" stroke-linejoin="round"/>
</svg>
