<svg width="24" height="24" viewBox="0 0 24 24" fill="none" xmlns="http://www.w3.org/2000/svg">
  <path d="M3 3L21 21" stroke="#6B7280" stroke-width="1.8" stroke-linecap="round" stroke-linejoin="round"/>
  <path d="M10.58 10.59C10.21 10.96 10 11.47 10 12C10 13.1 10.9 14 12 14C12.53 14 13.04 13.79 13.41 13.42" stroke="#6B7280" stroke-width="1.8" stroke-linecap="round" stroke-linejoin="round"/>
  <path d="M9.88 5.08C10.57 4.86 11.28 4.75 12 4.75C16.67 4.75 20.41 7.68 22 12C21.37 13.72 20.33 15.21 18.99 16.38" stroke="#6B7280" stroke-width="1.8" stroke-linecap="round" stroke-linejoin="round"/>
  <path d="M14.12 18.91C13.43 19.13 12.72 19.25 12 19.25C7.33 19.25 3.59 16.32 2 12C2.63 10.28 3.67 8.79 5.01 7.62" stroke="#6B7280" stroke-width="1.8" stroke-linecap="round" stroke-linejoin="round"/>
</svg>
